<svg width="35" height="47" viewBox="0 0 35 47" fill="none" xmlns="http://www.w3.org/2000/svg">
<path d="M34.8727 17.5771C34.8727 25.5784 24.2566 39.8232 19.6019 45.7006C18.4859 47.1013 16.4171 47.1013 15.3011 45.7006C10.6464 39.8232 0.0303574 25.5784 0.0303574 17.5771C0.0303574 7.8731 7.83358 0 17.4515 0C27.0694 0 34.8727 7.8731 34.8727 17.5771Z" fill="#004F9E"/>
<path d="M24.7987 19.0976H23.966L21.5169 21.5659H23.8558L26.0232 24.0342H8.8798L11.0595 21.5659H13.5697L11.1207 19.0976H10.1043L6.43074 22.8V30.205H28.4723V22.8L24.7987 19.0976ZM27.0151 12.8774L19.2271 5.02822L9.71248 14.6053L17.5005 22.4545L27.0151 12.8774ZM19.2393 8.49619L23.5742 12.8651L17.5127 18.9742L13.1779 14.6053L19.2393 8.49619Z" fill="white"/>
</svg>
