<svg id="visual" viewBox="0 0 900 600" width="900" height="600" xmlns="http://www.w3.org/2000/svg" xmlns:xlink="http://www.w3.org/1999/xlink" version="1.1"><rect x="0" y="0" width="900" height="600" fill="#004f9e"></rect><path d="M0 138L21.5 143.7C43 149.3 86 160.7 128.8 164.2C171.7 167.7 214.3 163.3 257.2 156C300 148.7 343 138.3 385.8 146.3C428.7 154.3 471.3 180.7 514.2 185C557 189.3 600 171.7 642.8 184.3C685.7 197 728.3 240 771.2 250C814 260 857 237 878.5 225.5L900 214L900 601L878.5 601C857 601 814 601 771.2 601C728.3 601 685.7 601 642.8 601C600 601 557 601 514.2 601C471.3 601 428.7 601 385.8 601C343 601 300 601 257.2 601C214.3 601 171.7 601 128.8 601C86 601 43 601 21.5 601L0 601Z" fill="#004f9e"></path><path d="M0 359L21.5 352.8C43 346.7 86 334.3 128.8 316.3C171.7 298.3 214.3 274.7 257.2 271.8C300 269 343 287 385.8 299.2C428.7 311.3 471.3 317.7 514.2 299.7C557 281.7 600 239.3 642.8 217.3C685.7 195.3 728.3 193.7 771.2 196C814 198.3 857 204.7 878.5 207.8L900 211L900 601L878.5 601C857 601 814 601 771.2 601C728.3 601 685.7 601 642.8 601C600 601 557 601 514.2 601C471.3 601 428.7 601 385.8 601C343 601 300 601 257.2 601C214.3 601 171.7 601 128.8 601C86 601 43 601 21.5 601L0 601Z" fill="#004891"></path><path d="M0 416L21.5 401.3C43 386.7 86 357.3 128.8 341C171.7 324.7 214.3 321.3 257.2 334.2C300 347 343 376 385.8 379.7C428.7 383.3 471.3 361.7 514.2 340C557 318.3 600 296.7 642.8 307C685.7 317.3 728.3 359.7 771.2 381.8C814 404 857 406 878.5 407L900 408L900 601L878.5 601C857 601 814 601 771.2 601C728.3 601 685.7 601 642.8 601C600 601 557 601 514.2 601C471.3 601 428.7 601 385.8 601C343 601 300 601 257.2 601C214.3 601 171.7 601 128.8 601C86 601 43 601 21.5 601L0 601Z" fill="#004284"></path><path d="M0 370L21.5 374.3C43 378.7 86 387.3 128.8 405.5C171.7 423.7 214.3 451.3 257.2 452.8C300 454.3 343 429.7 385.8 415.8C428.7 402 471.3 399 514.2 391.8C557 384.7 600 373.3 642.8 379.2C685.7 385 728.3 408 771.2 415.3C814 422.7 857 414.3 878.5 410.2L900 406L900 601L878.5 601C857 601 814 601 771.2 601C728.3 601 685.7 601 642.8 601C600 601 557 601 514.2 601C471.3 601 428.7 601 385.8 601C343 601 300 601 257.2 601C214.3 601 171.7 601 128.8 601C86 601 43 601 21.5 601L0 601Z" fill="#003b77"></path><path d="M0 535L21.5 529.8C43 524.7 86 514.3 128.8 515.5C171.7 516.7 214.3 529.3 257.2 526.8C300 524.3 343 506.7 385.8 494.2C428.7 481.7 471.3 474.3 514.2 479.5C557 484.7 600 502.3 642.8 503.7C685.7 505 728.3 490 771.2 492.5C814 495 857 515 878.5 525L900 535L900 601L878.5 601C857 601 814 601 771.2 601C728.3 601 685.7 601 642.8 601C600 601 557 601 514.2 601C471.3 601 428.7 601 385.8 601C343 601 300 601 257.2 601C214.3 601 171.7 601 128.8 601C86 601 43 601 21.5 601L0 601Z" fill="#00356a"></path></svg>